<mxfile modified="2020-09-10T09:13:38.053Z" host="app.diagrams.net" agent="5.0 (Macintosh; Intel Mac OS X 10_15_6) AppleWebKit/537.36 (KHTML, like Gecko) Chrome/85.0.4183.83 Safari/537.36" etag="rdJkkdzDBL_2KA27CXL5" version="13.6.9" type="github">
  <diagram id="d1ab7348-05c3-a1e3-ca4d-12c340fd6b49" name="Page-1">
    <mxGraphModel dx="1174" dy="739" grid="1" gridSize="10" guides="1" tooltips="1" connect="1" arrows="1" fold="1" page="1" pageScale="1" pageWidth="1169" pageHeight="827" background="#ffffff" math="0" shadow="0">
      <root>
        <mxCell id="0" />
        <mxCell id="1" parent="0" />
        <mxCell id="yhECnjRlUtOTU7UWhlDd-163" value="" style="outlineConnect=0;fontColor=#232F3E;gradientColor=#4D72F3;gradientDirection=north;fillColor=#3334B9;strokeColor=#ffffff;dashed=0;verticalLabelPosition=bottom;verticalAlign=top;align=center;html=1;fontSize=12;fontStyle=0;aspect=fixed;shape=mxgraph.aws4.resourceIcon;resIcon=mxgraph.aws4.documentdb_with_mongodb_compatibility;" vertex="1" parent="1">
          <mxGeometry x="15" y="320" width="107" height="107" as="geometry" />
        </mxCell>
        <mxCell id="yhECnjRlUtOTU7UWhlDd-164" value="" style="outlineConnect=0;fontColor=#232F3E;gradientColor=#945DF2;gradientDirection=north;fillColor=#5A30B5;strokeColor=#ffffff;dashed=0;verticalLabelPosition=bottom;verticalAlign=top;align=center;html=1;fontSize=12;fontStyle=0;aspect=fixed;shape=mxgraph.aws4.resourceIcon;resIcon=mxgraph.aws4.elasticsearch_service;" vertex="1" parent="1">
          <mxGeometry x="1000" y="316" width="110" height="110" as="geometry" />
        </mxCell>
        <mxCell id="yhECnjRlUtOTU7UWhlDd-166" style="edgeStyle=orthogonalEdgeStyle;rounded=0;orthogonalLoop=1;jettySize=auto;html=1;" edge="1" parent="1">
          <mxGeometry relative="1" as="geometry">
            <mxPoint x="525" y="330" as="sourcePoint" />
            <mxPoint x="122" y="330" as="targetPoint" />
          </mxGeometry>
        </mxCell>
        <mxCell id="yhECnjRlUtOTU7UWhlDd-165" value="" style="outlineConnect=0;fontColor=#232F3E;gradientColor=#F78E04;gradientDirection=north;fillColor=#D05C17;strokeColor=#ffffff;dashed=0;verticalLabelPosition=bottom;verticalAlign=top;align=center;html=1;fontSize=12;fontStyle=0;aspect=fixed;shape=mxgraph.aws4.resourceIcon;resIcon=mxgraph.aws4.eks;" vertex="1" parent="1">
          <mxGeometry x="500" y="318" width="108" height="108" as="geometry" />
        </mxCell>
        <mxCell id="yhECnjRlUtOTU7UWhlDd-168" value="&lt;font style=&quot;font-size: 18px&quot;&gt;DocumentDB&lt;/font&gt;" style="text;html=1;align=center;verticalAlign=middle;resizable=0;points=[];autosize=1;" vertex="1" parent="1">
          <mxGeometry x="8.5" y="434" width="120" height="20" as="geometry" />
        </mxCell>
        <mxCell id="yhECnjRlUtOTU7UWhlDd-169" value="&lt;font style=&quot;font-size: 18px&quot;&gt;mongodb-to-es tool&lt;/font&gt;" style="text;html=1;align=center;verticalAlign=middle;resizable=0;points=[];autosize=1;" vertex="1" parent="1">
          <mxGeometry x="470" y="434" width="170" height="20" as="geometry" />
        </mxCell>
        <mxCell id="yhECnjRlUtOTU7UWhlDd-170" value="&lt;font style=&quot;font-size: 18px&quot;&gt;Elasticsearch&lt;/font&gt;" style="text;html=1;align=center;verticalAlign=middle;resizable=0;points=[];autosize=1;" vertex="1" parent="1">
          <mxGeometry x="995" y="434" width="120" height="20" as="geometry" />
        </mxCell>
        <mxCell id="yhECnjRlUtOTU7UWhlDd-171" style="edgeStyle=orthogonalEdgeStyle;rounded=0;orthogonalLoop=1;jettySize=auto;html=1;" edge="1" parent="1">
          <mxGeometry relative="1" as="geometry">
            <mxPoint x="610" y="330" as="sourcePoint" />
            <mxPoint x="1000" y="330" as="targetPoint" />
            <Array as="points">
              <mxPoint x="987" y="330" />
              <mxPoint x="987" y="330" />
            </Array>
          </mxGeometry>
        </mxCell>
        <mxCell id="yhECnjRlUtOTU7UWhlDd-172" value="&lt;font style=&quot;font-size: 18px&quot;&gt;1.) Fetches records from db in batch&lt;/font&gt;" style="text;html=1;align=center;verticalAlign=middle;resizable=0;points=[];autosize=1;" vertex="1" parent="1">
          <mxGeometry x="145" y="310" width="300" height="20" as="geometry" />
        </mxCell>
        <mxCell id="yhECnjRlUtOTU7UWhlDd-173" value="&lt;font style=&quot;font-size: 18px&quot;&gt;4.) Push records to Elasticsearch&lt;/font&gt;" style="text;html=1;align=center;verticalAlign=middle;resizable=0;points=[];autosize=1;" vertex="1" parent="1">
          <mxGeometry x="660" y="310" width="280" height="20" as="geometry" />
        </mxCell>
        <mxCell id="yhECnjRlUtOTU7UWhlDd-175" style="edgeStyle=orthogonalEdgeStyle;rounded=0;orthogonalLoop=1;jettySize=auto;html=1;" edge="1" parent="1">
          <mxGeometry relative="1" as="geometry">
            <mxPoint x="122" y="375" as="sourcePoint" />
            <mxPoint x="498.5" y="375" as="targetPoint" />
            <Array as="points">
              <mxPoint x="485.5" y="375" />
              <mxPoint x="485.5" y="375" />
            </Array>
          </mxGeometry>
        </mxCell>
        <mxCell id="yhECnjRlUtOTU7UWhlDd-176" value="&lt;font style=&quot;font-size: 18px&quot;&gt;2.) Sends&amp;nbsp; the records to application&lt;/font&gt;" style="text;html=1;align=center;verticalAlign=middle;resizable=0;points=[];autosize=1;" vertex="1" parent="1">
          <mxGeometry x="155" y="355" width="300" height="20" as="geometry" />
        </mxCell>
        <mxCell id="yhECnjRlUtOTU7UWhlDd-177" style="edgeStyle=orthogonalEdgeStyle;rounded=0;orthogonalLoop=1;jettySize=auto;html=1;" edge="1" parent="1">
          <mxGeometry relative="1" as="geometry">
            <mxPoint x="502" y="420" as="sourcePoint" />
            <mxPoint x="122" y="420" as="targetPoint" />
          </mxGeometry>
        </mxCell>
        <mxCell id="yhECnjRlUtOTU7UWhlDd-178" value="&lt;font style=&quot;font-size: 18px&quot;&gt;6.) Sends the last object id to be stored in db&lt;/font&gt;" style="text;html=1;align=center;verticalAlign=middle;resizable=0;points=[];autosize=1;" vertex="1" parent="1">
          <mxGeometry x="128.5" y="400" width="370" height="20" as="geometry" />
        </mxCell>
        <mxCell id="yhECnjRlUtOTU7UWhlDd-179" style="edgeStyle=orthogonalEdgeStyle;rounded=0;orthogonalLoop=1;jettySize=auto;html=1;" edge="1" parent="1">
          <mxGeometry relative="1" as="geometry">
            <mxPoint x="1000" y="420" as="sourcePoint" />
            <mxPoint x="610" y="420" as="targetPoint" />
          </mxGeometry>
        </mxCell>
        <mxCell id="yhECnjRlUtOTU7UWhlDd-180" value="&lt;font style=&quot;font-size: 18px&quot;&gt;5.) Sends response back to the application&lt;/font&gt;" style="text;html=1;align=center;verticalAlign=middle;resizable=0;points=[];autosize=1;" vertex="1" parent="1">
          <mxGeometry x="620" y="394" width="360" height="20" as="geometry" />
        </mxCell>
        <mxCell id="yhECnjRlUtOTU7UWhlDd-181" style="edgeStyle=orthogonalEdgeStyle;rounded=0;orthogonalLoop=1;jettySize=auto;html=1;" edge="1" parent="1">
          <mxGeometry relative="1" as="geometry">
            <mxPoint x="608" y="318" as="sourcePoint" />
            <mxPoint x="498" y="318" as="targetPoint" />
            <Array as="points">
              <mxPoint x="608" y="248" />
              <mxPoint x="498" y="248" />
            </Array>
          </mxGeometry>
        </mxCell>
        <mxCell id="yhECnjRlUtOTU7UWhlDd-182" value="&lt;font style=&quot;font-size: 18px&quot;&gt;3.)Process the records received from db&lt;/font&gt;" style="text;html=1;align=center;verticalAlign=middle;resizable=0;points=[];autosize=1;" vertex="1" parent="1">
          <mxGeometry x="375" y="220" width="340" height="20" as="geometry" />
        </mxCell>
        <mxCell id="yhECnjRlUtOTU7UWhlDd-183" value="&lt;font style=&quot;font-size: 18px&quot;&gt;&lt;b&gt;Cronjob&lt;/b&gt;:- Application exits if there are no new records in db when running as a cronjob&lt;/font&gt;" style="text;html=1;align=center;verticalAlign=middle;resizable=0;points=[];autosize=1;" vertex="1" parent="1">
          <mxGeometry x="230" y="508" width="710" height="20" as="geometry" />
        </mxCell>
        <mxCell id="yhECnjRlUtOTU7UWhlDd-184" value="&lt;font style=&quot;font-size: 19px&quot;&gt;&lt;b&gt;Service&lt;/b&gt;:- Application runs continuously and waits for the new records in db.&lt;/font&gt;" style="text;html=1;align=center;verticalAlign=middle;resizable=0;points=[];autosize=1;" vertex="1" parent="1">
          <mxGeometry x="230" y="538" width="650" height="20" as="geometry" />
        </mxCell>
      </root>
    </mxGraphModel>
  </diagram>
</mxfile>
